<svg width="160" height="48" viewBox="0 0 160 48" fill="none" xmlns="http://www.w3.org/2000/svg">
<path d="M39.5896 28.0967C38.7671 26.7185 37.7891 25.6738 36.6332 24.9403C35.4773 24.2067 34.4104 23.7177 33.4546 23.451V22.8063H8.73666V38.4329H17.4724V27.0297H25.6969C27.6307 27.0297 29.1645 27.4965 30.3426 28.4301C31.4762 29.3637 32.0542 30.6752 32.0542 32.409V33.0759C32.0542 34.7874 31.454 36.1212 30.2981 37.0547C29.12 37.9883 27.5863 38.4551 25.6969 38.4551H17.4724V46.4129H26.7416C29.5201 46.4129 31.9653 45.9239 34.0547 44.9458C36.1442 43.9678 37.7891 42.5674 38.9894 40.7447C40.1897 38.8997 40.7677 36.6991 40.7677 34.1428V33.476C40.7677 31.2531 40.3453 29.4749 39.5451 28.1189L39.5896 28.0967ZM2.6461 46.3907H8.73666V38.6996H2.6461V46.3907Z" fill="#EFF3FE"/>
<path d="M39.3664 46.3907L58.0827 0H73.3313L78.9995 46.3907H69.9971L68.9079 36.1878H52.3478L48.3911 46.3907H39.3887H39.3664ZM55.5264 28.0967H67.9743L65.5069 5.51264H64.3066L55.5042 28.0967H55.5264Z" fill="#EFF3FE"/>
<path d="M80.6 46.3907L82.156 35.2542L108.786 8.89136L108.941 7.8244H86.6683L87.7575 0H119.166L117.61 11.1364L90.9806 37.4993L90.825 38.5663H113.876L112.787 46.3907H80.5778H80.6Z" fill="#EFF3FE"/>
<path d="M135.215 47.3243C131.414 47.3243 128.258 46.6352 125.746 45.2348C123.234 43.8344 121.434 41.8561 120.345 39.2776C119.256 36.6991 118.989 33.6316 119.478 30.0973L123.701 0.0222321H132.437L128.169 30.364C127.769 33.187 128.258 35.4321 129.658 37.0547C131.037 38.6996 133.259 39.4999 136.305 39.4999C139.35 39.4999 141.795 38.6774 143.64 37.0547C145.485 35.4098 146.596 33.187 146.996 30.364L151.264 0.0222321H160L155.777 30.0973C155.288 33.6316 154.132 36.6991 152.331 39.2776C150.531 41.8561 148.175 43.8566 145.263 45.2348C142.351 46.6352 138.994 47.3243 135.193 47.3243H135.215Z" fill="#EFF3FE"/>
<path d="M8.73573 38.4329V46.3907H0L1.22256 38.4329H8.73573Z" fill="#EFF3FE"/>
<path d="M42.7226 5.46818C41.5445 3.71214 39.8996 2.37844 37.8102 1.42262C35.6985 0.466795 33.2311 0 30.4304 0H7.13509L5.93476 7.69102H12.6699V22.8063H31.3195C31.7641 22.8063 35.8319 22.8063 37.3878 22.2506C38.3437 21.9394 39.3662 21.4282 40.4776 20.6946C41.5445 19.9611 42.5004 18.9164 43.3006 17.5827C44.1008 16.2267 44.5009 14.4929 44.5009 12.3812V11.7144C44.5009 9.26924 43.9007 7.202 42.7449 5.44596L42.7226 5.46818ZM35.743 13.8705C35.743 15.4932 35.1428 16.7824 33.9869 17.716C32.8088 18.6496 31.3195 19.1164 29.519 19.1164H21.4279V7.98H29.519C31.364 7.98 32.8755 8.42457 34.0314 9.33593C35.165 10.2251 35.7652 11.5143 35.7652 13.2037V13.8705H35.743Z" fill="#EFF3FE"/>
</svg>
